<?xml version="1.0" encoding="UTF-8"?>
<svg xmlns="http://www.w3.org/2000/svg" width="36.163" height="36.582" viewBox="0 0 36.163 36.582">
  <g id="coffee-beans" transform="translate(-0.999 -0.417)">
    <path id="Fill_1" data-name="Fill 1" d="M4.32,14.5A16.924,16.924,0,0,1,12,7.7C9.359,2.665,4.559-.3,0,.024c2.078,2.32,3.84,6.32,4.16,12.961A11.2,11.2,0,0,1,4.32,14.5Z" transform="translate(10.121 0.416)" fill="#fff"/>
    <path id="Fill_3" data-name="Fill 3" d="M9.36,11.68C9.04,4.321,6.72,1.282,4.88,0,.4,2.961-1.28,9.762,1.04,16.161c1.84,4.961,5.6,8.4,9.6,9.519a18.5,18.5,0,0,1,.16-5.918A32.559,32.559,0,0,1,9.36,11.68Z" transform="translate(0.999 1.959)" fill="#fff"/>
    <path id="Fill_4" data-name="Fill 4" d="M9.359,0C7.519,1.282,5.2,4.321,4.879,11.6,4.558,18.243,2.558,22.8,0,25.922c.32,0,.64.078.957.078,4.961,0,10-3.917,12.242-9.839C15.519,9.68,13.84,2.961,9.359,0Z" transform="translate(22.922 10.998)" fill="#fff"/>
    <path id="Fill_6" data-name="Fill 6" d="M14.116,0h-.8c-4.961,0-10,3.84-12.238,9.84-2.4,6.48-.641,13.2,3.84,16.16,2.48-2.563,4.718-6.563,4.957-13.039C10.276,6.238,12.034,2.32,14.116,0Z" transform="translate(13.845 9.561)" fill="#fff"/>
  </g>
</svg>
