<?xml version="1.0" encoding="UTF-8"?>
<svg xmlns="http://www.w3.org/2000/svg" width="178.999" height="35.98" viewBox="0 0 178.999 35.98">
  <g id="Group_2" data-name="Group 2" transform="translate(-0.001 -0.02)">
    <g id="Group_3" data-name="Group 3">
      <g id="Group">
        <path id="Fill_1" data-name="Fill 1" d="M28.938,20.789H.712a.706.706,0,0,1-.61-.277.707.707,0,0,1-.036-.67l.274-.714a1.606,1.606,0,0,1,1.387-.947H10.6a12.216,12.216,0,0,1-5.594-3.518A16.094,16.094,0,0,1,1.928,9.477,27.121,27.121,0,0,1,.33.686.659.659,0,0,1,.522.208.7.7,0,0,1,1.02,0H28.629a.694.694,0,0,1,.5.207.668.668,0,0,1,.2.479c-.009.553-.032,1.084-.07,1.625H33.7a2.626,2.626,0,0,1,2.2,1.1,2.375,2.375,0,0,1,.2,2.256,10.468,10.468,0,0,1-9.77,6.947,12.034,12.034,0,0,1-6.847,5.569h8.44a1.6,1.6,0,0,1,1.386.947l.279.714a.647.647,0,0,1-.646.948Zm.1-16.421a24.636,24.636,0,0,1-1.624,6.1A8.415,8.415,0,0,0,34.187,4.9a.356.356,0,0,0,.007-.338.568.568,0,0,0-.5-.192Z" transform="translate(0.001 15.211)" fill="#fff"/>
        <path id="Fill_3" data-name="Fill 3" d="M1.49,9.367a.729.729,0,1,0,1.1-.955c-.02-.023-1.948-2.3-.71-3.864C3.536,2.466,2.528.768,1.765.158a.728.728,0,0,0-.91,1.136c.177.15.994.957-.111,2.35C-1.248,6.149,1.38,9.235,1.49,9.367Z" transform="translate(13.074 4.954)" fill="#fff"/>
        <path id="Fill_4" data-name="Fill 4" d="M1.921,1.292A.728.728,0,0,0,1.008.157C.247.767-.761,2.467.894,4.547,2.132,6.107.2,8.39.184,8.41A.731.731,0,0,0,.258,9.438a.73.73,0,0,0,1.028-.074c.111-.131,2.739-3.218.747-5.722C.927,2.249,1.744,1.443,1.921,1.292Z" transform="translate(16.537 0.02)" fill="#fff"/>
      </g>
      <text id="CoffeeDrop" transform="translate(50 29)" fill="#fff" font-size="24" font-family="Raleway"><tspan x="0" y="0">Coffee</tspan><tspan y="0" fill="#28e7a8" font-family="Raleway-Bold, Raleway" font-weight="700">Drop</tspan></text>
    </g>
  </g>
</svg>
